<?xml version="1.0" encoding="UTF-8" standalone="no"?>
<svg xmlns="http://www.w3.org/2000/svg" version="1.2" baseProfile="tiny" viewBox="0.00 0.00 1018.00 1074.00" width="1018.00" height="1074.00">
<path fill="#ffffff" d="
  M 526.98 386.25
  C 526.90 387.30 527.13 387.38 527.68 386.48
  C 568.74 319.01 637.38 272.67 716.07 261.36
  C 844.28 242.95 966.60 320.63 1005.57 444.14
  C 1013.61 469.61 1017.70 496.20 1017.83 523.89
  C 1017.84 524.61 1017.49 525.07 1016.80 525.27
  C 1009.33 527.47 1001.49 528.71 993.72 529.47
  C 982.77 530.55 975.44 531.21 971.75 531.45
  C 933.37 533.90 894.95 535.49 856.50 536.22
  C 787.09 537.55 717.67 537.52 648.25 536.15
  C 613.58 535.46 578.95 534.08 544.35 532.00
  C 525.69 530.88 507.02 528.82 488.38 526.98
  C 386.11 516.86 298.75 447.94 264.68 350.99
  C 226.70 242.93 264.12 121.96 355.50 53.47
  C 401.28 19.16 457.81 -0.59 515.81 0.38
  C 516.20 0.39 516.46 0.57 516.59 0.94
  C 519.24 8.75 520.34 17.83 521.08 26.22
  C 523.88 57.83 525.72 89.51 526.60 121.25
  C 529.05 209.24 529.19 297.24 527.02 385.25
  C 527.01 385.69 526.99 386.02 526.98 386.25
  Z"
/>
<path fill="#ffffff" d="
  M 490.92 687.93
  C 490.94 687.28 490.78 687.24 490.44 687.79
  C 462.43 733.52 424.38 767.85 376.30 790.78
  C 297.87 828.19 202.73 823.23 128.61 778.02
  C 48.65 729.24 0.68 644.62 0.15 550.62
  C 0.15 549.87 0.51 549.37 1.22 549.13
  C 5.83 547.60 10.50 547.04 15.25 546.21
  C 25.09 544.50 37.90 543.56 45.50 543.07
  C 79.18 540.92 112.89 539.45 146.62 538.67
  C 221.41 536.94 296.21 536.84 371.00 538.35
  C 415.63 539.25 460.17 541.20 504.67 544.94
  C 504.75 544.95 510.31 545.35 521.35 546.15
  C 617.47 553.08 702.10 611.05 743.13 697.87
  C 787.13 790.96 771.66 901.36 705.60 979.84
  C 656.37 1038.33 579.79 1075.21 502.53 1073.61
  C 501.97 1073.60 501.47 1073.24 501.29 1072.71
  C 498.67 1064.97 497.57 1055.49 496.86 1047.30
  C 494.27 1017.38 492.49 986.28 491.54 954.00
  C 488.90 865.17 488.69 776.48 490.92 687.93
  Z"
/>
</svg>
